<svg xmlns="http://www.w3.org/2000/svg" x="0px" y="0px" width="100" height="100" viewBox="0 0 64 64">
<path fill="#ed7899" d="M38.095,4.986c-2.824,0-5.646,0.753-8.134,2.332l-13.044,8.348c-3.338,2.093-5.628,5.495-6.291,9.34 c-0.583,3.272-0.063,6.63,1.461,9.462c0.175,0.325,0.157,0.721-0.048,1.028c-1.068,1.603-1.767,3.354-2.076,5.208 c-0.708,3.938,0.216,8.055,2.533,11.308c4.903,6.999,14.553,9.091,21.519,4.67l13.046-8.303c3.336-2.09,5.626-5.492,6.289-9.337 c0.583-3.272,0.063-6.632-1.461-9.463c-0.175-0.325-0.157-0.721,0.048-1.028c1.068-1.602,1.767-3.354,2.076-5.208 c0.75-3.975-0.172-8.104-2.527-11.347c-0.004-0.006-0.008-0.012-0.012-0.018C48.337,7.461,43.213,4.986,38.095,4.986z"></path><path fill="#8d6c9f" d="M25.927,60.992c-5.755,0-11.522-2.769-15.065-7.826c-2.623-3.683-3.67-8.351-2.87-12.803 c0.322-1.932,1.015-3.774,2.062-5.477c-1.526-3.11-2.023-6.718-1.398-10.227c0.758-4.398,3.38-8.294,7.19-10.684l13.04-8.345 c7.89-5.007,18.752-2.675,24.224,5.197c2.673,3.687,3.719,8.374,2.871,12.863c-0.32,1.924-1.013,3.766-2.06,5.468 c1.526,3.11,2.023,6.718,1.398,10.227c-0.758,4.399-3.379,8.296-7.191,10.684l-13.042,8.3 C32.29,60.146,29.11,60.992,25.927,60.992z M38.095,4.986c-2.824,0-5.646,0.753-8.134,2.332l-13.044,8.348 c-3.338,2.093-5.628,5.495-6.291,9.34c-0.583,3.272-0.063,6.63,1.461,9.462c0.175,0.325,0.157,0.721-0.048,1.028 c-1.068,1.603-1.767,3.354-2.076,5.208c-0.708,3.938,0.216,8.055,2.533,11.308c4.903,6.999,14.553,9.091,21.519,4.67l13.046-8.303 c3.336-2.09,5.626-5.492,6.289-9.337c0.583-3.272,0.063-6.632-1.461-9.463c-0.175-0.325-0.157-0.721,0.048-1.028 c1.068-1.602,1.767-3.354,2.076-5.208c0.75-3.975-0.172-8.104-2.527-11.347c-0.004-0.006-0.008-0.012-0.012-0.018 C48.337,7.461,43.213,4.986,38.095,4.986z M25.724,54.569c-3.709,0.001-7.27-1.797-9.433-4.917 c-1.665-2.288-2.323-5.155-1.839-8.055l0.297-1.297l0.261-0.847c0.096-0.307,0.333-0.548,0.636-0.65 c0.304-0.1,0.639-0.052,0.899,0.135l0.67,0.479c1.489,1.083,3.129,1.902,4.881,2.441L22.568,42 c0.459,0.138,0.755,0.581,0.708,1.058l-0.048,0.479c-0.03,0.421,0.105,0.921,0.363,1.308c0.525,0.755,1.438,1.104,2.314,0.879 c0.176-0.062,0.405-0.138,0.55-0.225l13.088-8.359c0.438-0.282,0.708-0.673,0.799-1.16c0.091-0.486-0.027-1.028-0.318-1.447 c-0.518-0.744-1.429-1.076-2.324-0.846c-0.176,0.062-0.405,0.138-0.55,0.225l-5.001,3.191c-0.887,0.574-1.89,1.005-2.975,1.275 c-4.613,1.194-9.542-0.641-12.262-4.563c-1.651-2.343-2.304-5.287-1.789-8.072c0.473-2.733,2.182-5.259,4.57-6.744l13.151-8.369 c0.834-0.54,1.795-0.97,2.929-1.311c4.656-1.201,9.587,0.628,12.306,4.552c1.665,2.288,2.323,5.155,1.839,8.055 c-0.003,0.018-0.006,0.035-0.01,0.053c-0.088,0.399-0.194,0.838-0.362,1.344l-0.233,0.747c-0.096,0.307-0.333,0.548-0.636,0.65 c-0.303,0.102-0.639,0.053-0.899-0.135l-0.67-0.479c-1.489-1.083-3.129-1.902-4.881-2.441l-0.472-0.142 c-0.459-0.138-0.755-0.581-0.708-1.058l0.048-0.479c0.03-0.421-0.105-0.921-0.363-1.308c-0.509-0.73-1.422-1.063-2.314-0.831 c-0.176,0.062-0.405,0.138-0.55,0.225l-13.088,8.359c-0.438,0.282-0.708,0.673-0.799,1.16c-0.091,0.486,0.027,1.028,0.318,1.447 c0.518,0.744,1.43,1.076,2.324,0.846c0.176-0.062,0.405-0.138,0.55-0.225l5.001-3.191c0.836-0.541,1.796-0.971,2.931-1.312 c4.656-1.201,9.587,0.629,12.306,4.552c1.665,2.288,2.323,5.155,1.839,8.055c-0.476,2.751-2.185,5.276-4.573,6.762l-13.151,8.369 c-0.834,0.54-1.795,0.97-2.929,1.311C27.644,54.45,26.679,54.569,25.724,54.569z M16.549,41.393l-0.135,0.586 c-0.384,2.313,0.147,4.646,1.507,6.517c2.258,3.256,6.328,4.767,10.139,3.783c0.913-0.275,1.706-0.628,2.386-1.068l13.167-8.378 c1.92-1.194,3.287-3.213,3.667-5.404c0.394-2.359-0.138-4.692-1.498-6.563c-2.258-3.255-6.326-4.766-10.139-3.783 c-0.913,0.275-1.706,0.628-2.386,1.068l-5.03,3.209c-0.357,0.215-0.717,0.335-1.035,0.44c-1.781,0.465-3.532-0.181-4.535-1.621 c-0.598-0.864-0.831-1.94-0.641-2.957c0.194-1.034,0.777-1.891,1.687-2.475l13.114-8.376c0.357-0.215,0.717-0.335,1.035-0.44 c1.778-0.466,3.532,0.181,4.535,1.621c0.454,0.681,0.704,1.495,0.712,2.289c1.679,0.546,3.259,1.322,4.712,2.313 c0.052-0.193,0.097-0.384,0.142-0.584c0.386-2.357-0.147-4.68-1.501-6.543c-2.258-3.255-6.326-4.768-10.139-3.783 c-0.913,0.275-1.706,0.628-2.386,1.068L20.76,20.689c-1.92,1.194-3.288,3.213-3.667,5.404c-0.42,2.271,0.112,4.663,1.459,6.574 c2.249,3.243,6.317,4.757,10.13,3.771c0.879-0.221,1.679-0.563,2.386-1.021l5.03-3.209c0.357-0.215,0.717-0.335,1.035-0.44 c1.779-0.467,3.533,0.181,4.535,1.621c0.598,0.864,0.831,1.94,0.641,2.957c-0.194,1.034-0.777,1.891-1.687,2.475l-13.114,8.376 c-0.357,0.215-0.717,0.335-1.035,0.44c-1.763,0.464-3.515-0.203-4.535-1.669c-0.454-0.681-0.704-1.495-0.712-2.289 C19.561,43.139,17.993,42.371,16.549,41.393z"></path><path fill="#fff8ee" d="M16.549,41.393l-0.135,0.586c-0.384,2.313,0.147,4.646,1.507,6.517 c2.258,3.256,6.328,4.767,10.139,3.783c0.913-0.275,1.706-0.628,2.386-1.068l13.167-8.378c1.92-1.194,3.287-3.213,3.667-5.404 c0.394-2.359-0.138-4.692-1.498-6.563c-2.258-3.255-6.326-4.766-10.139-3.783c-0.913,0.275-1.706,0.628-2.386,1.068l-5.03,3.209 c-0.357,0.215-0.717,0.335-1.035,0.44c-1.781,0.465-3.532-0.181-4.535-1.621c-0.598-0.864-0.831-1.94-0.641-2.957 c0.194-1.034,0.777-1.891,1.687-2.475l13.114-8.376c0.357-0.215,0.717-0.335,1.035-0.44c1.778-0.466,3.532,0.181,4.535,1.621 c0.454,0.681,0.704,1.495,0.712,2.289c1.679,0.546,3.259,1.322,4.712,2.313c0.052-0.193,0.097-0.384,0.142-0.584 c0.386-2.357-0.147-4.68-1.501-6.543c-2.258-3.255-6.326-4.768-10.139-3.783c-0.913,0.275-1.706,0.628-2.386,1.068L20.76,20.689 c-1.92,1.194-3.288,3.213-3.667,5.404c-0.42,2.271,0.112,4.663,1.459,6.574c2.249,3.243,6.317,4.757,10.13,3.771 c0.879-0.221,1.679-0.563,2.386-1.021l5.03-3.209c0.357-0.215,0.717-0.335,1.035-0.44c1.779-0.467,3.533,0.181,4.535,1.621 c0.598,0.864,0.831,1.94,0.641,2.957c-0.194,1.034-0.777,1.891-1.687,2.475l-13.114,8.376c-0.357,0.215-0.717,0.335-1.035,0.44 c-1.763,0.464-3.515-0.203-4.535-1.669c-0.454-0.681-0.704-1.495-0.712-2.289C19.561,43.139,17.993,42.371,16.549,41.393z"></path><path fill="#8d6c9f" d="M10.797,14.836c-0.469,0.304-1.093,0.174-1.393-0.29l-1.087-1.679 c-0.3-0.464-0.163-1.086,0.307-1.39c0.469-0.304,1.093-0.174,1.393,0.29l1.087,1.679C11.403,13.91,11.266,14.532,10.797,14.836z"></path><path fill="#8d6c9f" d="M15.047,12.086c-0.469,0.304-1.093,0.174-1.393-0.29l-1.087-1.679 c-0.3-0.464-0.163-1.086,0.307-1.39c0.469-0.304,1.093-0.174,1.393,0.29l1.087,1.679C15.653,11.16,15.516,11.782,15.047,12.086z"></path><g><path fill="#8d6c9f" d="M19.297,9.336c-0.469,0.304-1.093,0.174-1.393-0.29l-1.087-1.679 c-0.3-0.464-0.163-1.086,0.307-1.39c0.469-0.304,1.093-0.174,1.393,0.29l1.087,1.679C19.903,8.41,19.766,9.032,19.297,9.336z"></path><path fill="#8d6c9f" d="M23.547,6.586c-0.469,0.304-1.093,0.174-1.393-0.29l-1.087-1.679 c-0.3-0.464-0.163-1.086,0.307-1.39c0.469-0.304,1.093-0.174,1.393,0.29l1.087,1.679C24.153,5.66,24.016,6.282,23.547,6.586z"></path></g><g><path fill="#8d6c9f" d="M42.639,60.836c-0.469,0.304-1.093,0.174-1.393-0.29l-1.087-1.679 c-0.3-0.464-0.163-1.086,0.307-1.39c0.469-0.304,1.093-0.174,1.393,0.29l1.087,1.679C43.245,59.91,43.108,60.532,42.639,60.836z"></path><path fill="#8d6c9f" d="M46.889,58.086c-0.469,0.304-1.093,0.174-1.393-0.29l-1.087-1.679 c-0.3-0.464-0.163-1.086,0.307-1.39c0.469-0.304,1.093-0.174,1.393,0.29l1.087,1.679C47.495,57.16,47.358,57.782,46.889,58.086z"></path><g><path fill="#8d6c9f" d="M51.139,55.336c-0.469,0.304-1.093,0.174-1.393-0.29l-1.087-1.679 c-0.3-0.464-0.163-1.086,0.307-1.39c0.469-0.304,1.093-0.174,1.393,0.29l1.087,1.679C51.745,54.41,51.608,55.032,51.139,55.336z"></path><path fill="#8d6c9f" d="M55.389,52.586c-0.469,0.304-1.093,0.174-1.393-0.29l-1.087-1.679 c-0.3-0.464-0.163-1.086,0.307-1.39c0.469-0.304,1.093-0.174,1.393,0.29l1.087,1.679C55.995,51.66,55.858,52.282,55.389,52.586z"></path></g></g>
</svg>